<svg id="Layer_1" enable-background="new 0 0 512 512" height="512" viewBox="0 0 512 512" width="512" xmlns="http://www.w3.org/2000/svg"><path d="m453.552 225.159c-1.218-3.96-5.416-6.183-9.375-4.962-3.959 1.219-6.18 5.416-4.961 9.375 27.799 90.298 26.245 84.533 26.245 86.895 0 4.128-2.342 8.009-6.267 10.383l-49.2 29.787c.971-2.835.157-5.788-1.785-7.731l-33.958-33.958 33.958-33.957c2.927-2.928 2.929-7.677 0-10.607l-33.893-33.894 33.893-33.894c2.927-2.928 2.929-7.677 0-10.607l-33.926-33.925 32.819-32.819 23.288 75.655c1.221 3.968 5.428 6.178 9.375 4.961 3.959-1.219 6.18-5.416 4.961-9.374l-47.801-155.29c-7.482-24.257-31.808-41.197-59.157-41.197-5.035 0-156.47 0-163.88 0-27.293 0-51.601 16.89-59.112 41.071l-44.078 141.847c-1.229 3.955.981 8.158 4.937 9.388 3.957 1.23 8.158-.98 9.388-4.937l19.425-62.512 33.206 33.207-33.926 33.925c-2.927 2.928-2.929 7.677 0 10.607l33.893 33.894-33.893 33.894c-2.927 2.928-2.929 7.677 0 10.607l33.958 33.957-33.958 33.958c-2.144 2.145-2.852 5.451-1.524 8.389l-50.496-30.434c-5.221-3.145-7.342-8.685-5.788-13.666l30.2-97.178c1.229-3.955-.981-8.158-4.937-9.388-3.955-1.229-8.159.98-9.388 4.937l-30.198 97.17c-1.447 4.645-1.077-.398-1.077 70.359 0 4.143 3.358 7.5 7.5 7.5s7.5-3.357 7.5-7.5v-38.449l39.527 23.823c-.012.176-.027.351-.027.53v46.977c0 4.143 3.358 7.5 7.5 7.5s7.5-3.357 7.5-7.5v-38.482l39.5 23.807v46.82c0 4.143 3.358 7.5 7.5 7.5s7.5-3.357 7.5-7.5v-37.78l39.516 23.817c-.005.109-.016.216-.016.326v46.977c0 4.143 3.358 7.5 7.5 7.5s7.5-3.357 7.5-7.5v-38.271c33.811 20.378 33.413 20.641 39.5 22.098v43.212c0 4.143 3.358 7.5 7.5 7.5s7.5-3.357 7.5-7.5v-43.279c6.02-1.5 5.73-1.838 39.5-22.284v38.525c0 4.143 3.358 7.5 7.5 7.5s7.5-3.357 7.5-7.5v-46.977c0-.206-.014-.409-.031-.611l39.531-23.933v38.181c0 4.143 3.358 7.5 7.5 7.5s7.5-3.357 7.5-7.5c0-.593.008-46.662-.014-47.254l39.514-23.923v39.032c0 4.143 3.358 7.5 7.5 7.5s7.5-3.357 7.5-7.5c0-50.134.049-47.124-.087-48.06l39.587-23.967v39.147c0 4.143 3.358 7.5 7.5 7.5s7.5-3.357 7.5-7.5v-61.236c.002-2.468-6.035-21.459-27.968-92.702zm-61.252 50.529-28.623 28.622-28.623-28.622 28.623-28.623zm-60.384-60.32 21.122 21.122-21.122 21.122zm0-78.459 21.154 21.155-21.154 21.154zm0-78.522 21.186 21.186-21.186 21.186zm0 235.375 21.186 21.186-21.186 21.186zm60.384-96.469-28.623 28.623-28.623-28.623 28.623-28.622zm-28.623-49.836-28.623-28.623 28.623-28.622 28.623 28.622zm25.026-81.983 12.697 41.247-27.101-27.101zm-6.113-19.861 1.144 3.717-20.009 19.652-28.674-28.674 21.636-21.668c12.389 4.982 22.123 14.719 25.903 26.973zm-43.491-30.588-7.182 7.193v-7.218c6.973-.001 6.025-.005 7.182.025zm-159.016 85.796-21.248-21.248 21.248-21.248zm0 78.459-21.217-21.216 21.217-21.217zm0 78.395-21.184-21.184 21.184-21.184zm0 78.522-21.248-21.249 21.248-21.248zm0-321.197v6.849l-6.608-6.842c1.009-.007-2.081-.007 6.608-.007zm-50.982 30.521c3.878-12.484 13.952-22.347 26.71-27.209l21.163 21.91-28.832 28.831-20.318-19.42zm-6.249 20.11 14.713 14.063-27.687 27.687zm-3.214 53.203 28.623-28.622 28.623 28.622-28.623 28.623zm0 78.459 28.623-28.622 28.623 28.622-28.623 28.623zm0 78.395 28.623-28.623 28.623 28.623-28.624 28.622zm28.622 107.144-28.623-28.622 28.623-28.623 28.623 28.623zm31.823-10.609v32.012l-19.974-12.038zm33.716 52.332-18.715-11.28v-375.605l18.715 32.443zm34.67 20.853c-.775-.398.223.177-19.67-11.813v-337.48l15.159 26.278c1.131 1.953 2.685 3.528 4.511 4.655zm6.969-333.134c-6.783-11.758-49.03-84.993-56.115-97.274h112.23c-6.848 11.871-49.043 85.015-56.115 97.274zm42.701 312.084v-88.098c0-4.143-3.358-7.5-7.5-7.5s-7.5 3.357-7.5 7.5v97.18c-20.382 12.34-18.905 11.467-19.67 11.873v-318.99c1.371-1.046 2.548-2.374 3.456-3.941l16.214-28.107v211.985c0 4.143 3.358 7.5 7.5 7.5s7.5-3.357 7.5-7.5v-237.988l18.778-32.551v377.269zm33.777-20.45v-31.623l19.698 19.697zm31.761-21.076-28.623-28.622 28.623-28.623 28.623 28.623z"/><path d="m351.199 42.438 10.353 10.353c1.174 1.174 3.077 1.174 4.251 0l10.353-10.353c1.174-1.174 1.174-3.077 0-4.251l-10.353-10.353c-1.174-1.174-3.077-1.174-4.251 0l-10.353 10.353c-1.174 1.174-1.174 3.077 0 4.251z"/><path d="m361.552 106.356-10.353 10.353c-1.174 1.174-1.174 3.077 0 4.251l10.353 10.353c1.174 1.174 3.077 1.174 4.251 0l10.353-10.353c1.174-1.174 1.174-3.077 0-4.251l-10.353-10.353c-1.174-1.174-3.077-1.174-4.251 0z"/><path d="m361.552 184.815-10.353 10.353c-1.174 1.174-1.174 3.077 0 4.251l10.353 10.353c1.174 1.174 3.077 1.174 4.251 0l10.353-10.353c1.174-1.174 1.174-3.077 0-4.251l-10.353-10.353c-1.174-1.174-3.077-1.174-4.251 0z"/><path d="m361.552 263.209-10.353 10.353c-1.174 1.174-1.174 3.077 0 4.251l10.353 10.353c1.174 1.174 3.077 1.174 4.251 0l10.353-10.353c1.174-1.174 1.174-3.077 0-4.251l-10.353-10.353c-1.174-1.174-3.077-1.174-4.251 0z"/><path d="m361.552 341.731-10.353 10.353c-1.174 1.174-1.174 3.077 0 4.251l10.353 10.353c1.174 1.174 3.077 1.174 4.251 0l10.353-10.353c1.174-1.174 1.174-3.077 0-4.251l-10.353-10.353c-1.174-1.174-3.077-1.174-4.251 0z"/><path d="m150.386 52.791 10.353-10.353c1.174-1.174 1.174-3.077 0-4.251l-10.353-10.353c-1.174-1.174-3.077-1.174-4.251 0l-10.353 10.353c-1.174 1.174-1.174 3.077 0 4.251l10.353 10.353c1.174 1.174 3.077 1.174 4.251 0z"/><path d="m150.386 131.313 10.353-10.353c1.174-1.174 1.174-3.077 0-4.251l-10.353-10.353c-1.174-1.174-3.077-1.174-4.251 0l-10.353 10.353c-1.174 1.174-1.174 3.077 0 4.251l10.353 10.353c1.174 1.174 3.077 1.174 4.251 0z"/><path d="m150.386 209.772 10.353-10.353c1.174-1.174 1.174-3.077 0-4.251l-10.353-10.353c-1.174-1.174-3.077-1.174-4.251 0l-10.353 10.353c-1.174 1.174-1.174 3.077 0 4.251l10.353 10.353c1.174 1.174 3.077 1.174 4.251 0z"/><path d="m150.386 288.166 10.353-10.353c1.174-1.174 1.174-3.077 0-4.251l-10.353-10.353c-1.174-1.174-3.077-1.174-4.251 0l-10.353 10.353c-1.174 1.174-1.174 3.077 0 4.251l10.353 10.353c1.174 1.174 3.077 1.174 4.251 0z"/><path d="m160.739 352.084-10.353-10.353c-1.174-1.174-3.077-1.174-4.251 0l-10.353 10.353c-1.174 1.174-1.174 3.077 0 4.251l10.353 10.353c1.174 1.174 3.077 1.174 4.251 0l10.353-10.353c1.174-1.174 1.174-3.077 0-4.251z"/></svg>